<svg width="260" height="163" viewBox="0 0 260 163" fill="none" xmlns="http://www.w3.org/2000/svg">
<path d="M0.103881 159.224L42.1719 2.22354C42.5233 0.911992 43.7119 0 45.0697 0H120.034C122.006 0 123.442 1.8711 122.932 3.77647L80.8635 160.776C80.5121 162.088 79.3235 163 77.9657 163H3.00166C1.02907 163 -0.406661 161.129 0.103881 159.224Z" fill="white"/>
<path d="M133.348 2.22355L91.2796 159.224C90.7691 161.129 92.2048 163 94.1774 163H146.29C147.648 163 148.836 162.088 149.188 160.776L191.256 3.77646C191.766 1.87109 190.331 0 188.358 0H136.245C134.888 0 133.699 0.912 133.348 2.22355Z" fill="white"/>
<path d="M159.604 159.224L201.672 2.22354C202.023 0.911992 203.212 0 204.57 0H242.034C244.006 0 245.442 1.8711 244.932 3.77647L202.863 160.776C202.512 162.088 201.324 163 199.966 163H162.502C160.529 163 159.093 161.129 159.604 159.224Z" fill="white"/>
<path d="M221.22 127.724L212.78 159.224C212.269 161.129 213.705 163 215.677 163H248.418C249.775 163 250.964 162.088 251.315 160.776L259.756 129.276C260.266 127.371 258.831 125.5 256.858 125.5H224.118C222.76 125.5 221.571 126.412 221.22 127.724Z" fill="#C5811A"/>
</svg>
